<svg width="16" height="16" viewBox="0 0 16 16" fill="none" xmlns="http://www.w3.org/2000/svg"><path d="M2.06654 3.41201L3.30916 4.68289C3.50222 4.88033 3.81878 4.88389 4.01622 4.69084C4.21367 4.49778 4.21723 4.18122 4.02417 3.98378L2.73171 2.66192C4.08658 1.32458 5.9467 0.5 7.99999 0.5C12.1421 0.5 15.5 3.8579 15.5 8.00004C15.5 10.0709 14.6612 11.9454 13.3035 13.3031L11.9871 11.9806C11.7923 11.7849 11.4757 11.7842 11.28 11.979C11.0843 12.1738 11.0836 12.4904 11.2784 12.6861L12.5495 13.9631C11.2875 14.9276 9.71111 15.5001 7.99999 15.5001C3.85785 15.5001 0.5 12.1422 0.5 8.00004C0.5 6.27151 1.08422 4.68039 2.06654 3.41201Z" stroke="#5FCF86" stroke-linecap="round" stroke-linejoin="round"></path><path d="M10.3364 5.92398H10.1909C10.0678 5.21142 9.48584 4.66675 8.78821 4.66675H5.12098C4.65092 4.66675 4.26666 5.07712 4.26666 5.57703C4.26666 5.6106 4.27412 5.64045 4.27785 5.67402C4.27412 5.68895 4.26666 5.70387 4.26666 5.72252V9.93815C4.26666 10.7067 4.89341 11.3334 5.65819 11.3334H10.3364C11.1012 11.3334 11.728 10.7067 11.728 9.93815V7.31551C11.728 6.547 11.1012 5.92398 10.3364 5.92398ZM10.1275 9.09876C9.87009 9.09876 9.65745 8.88984 9.65745 8.6287C9.65745 8.36755 9.87009 8.1549 10.1275 8.1549C10.3887 8.1549 10.6013 8.36755 10.6013 8.6287C10.6013 8.88984 10.3887 9.09876 10.1275 9.09876ZM5.12098 5.22635H8.78821C9.17992 5.22635 9.50822 5.52107 9.61641 5.92398H5.12098C4.95683 5.92398 4.82626 5.76729 4.82626 5.57703C4.82626 5.38303 4.95683 5.22635 5.12098 5.22635Z" fill="#5FCF86"></path></svg>